<svg width="20" height="20" viewBox="0 0 20 20" fill="none" xmlns="http://www.w3.org/2000/svg">
<path d="M19.375 12.25V17.5C19.375 17.9973 19.1775 18.4742 18.8258 18.8258C18.4742 19.1775 17.9973 19.375 17.5 19.375H2.5C2.00272 19.375 1.52581 19.1775 1.17417 18.8258C0.822544 18.4742 0.625 17.9973 0.625 17.5V12.25C0.625 11.9516 0.743526 11.6655 0.954505 11.4545C1.16548 11.2435 1.45163 11.125 1.75 11.125C2.04837 11.125 2.33452 11.2435 2.5455 11.4545C2.75647 11.6655 2.875 11.9516 2.875 12.25V17.125H17.125V12.25C17.125 11.9516 17.2435 11.6655 17.4545 11.4545C17.6655 11.2435 17.9516 11.125 18.25 11.125C18.5484 11.125 18.8345 11.2435 19.0455 11.4545C19.2565 11.6655 19.375 11.9516 19.375 12.25ZM9.20406 13.0459C9.30858 13.1508 9.43277 13.234 9.56952 13.2908C9.70626 13.3476 9.85287 13.3768 10.0009 13.3768C10.149 13.3768 10.2956 13.3476 10.4324 13.2908C10.5691 13.234 10.6933 13.1508 10.7978 13.0459L14.5478 9.29594C14.7592 9.08459 14.8779 8.79795 14.8779 8.49906C14.8779 8.20018 14.7592 7.91353 14.5478 7.70219C14.3365 7.49084 14.0498 7.37211 13.7509 7.37211C13.4521 7.37211 13.1654 7.49084 12.9541 7.70219L11.125 9.53125V1.75C11.125 1.45163 11.0065 1.16548 10.7955 0.954505C10.5845 0.743526 10.2984 0.625 10 0.625C9.70163 0.625 9.41548 0.743526 9.2045 0.954505C8.99353 1.16548 8.875 1.45163 8.875 1.75V9.53125L7.04594 7.70406C6.83459 7.49272 6.54795 7.37399 6.24906 7.37399C5.95018 7.37399 5.66353 7.49272 5.45219 7.70406C5.24084 7.91541 5.12211 8.20205 5.12211 8.50094C5.12211 8.79982 5.24084 9.08647 5.45219 9.29781L9.20406 13.0459Z" fill="#1A4C1C"/>
</svg>
