<svg width="1440" height="6" viewBox="0 0 1440 6" fill="none" xmlns="http://www.w3.org/2000/svg">
<path opacity="0.2" d="M-68.37 5.21C-68.99 5.21 -69.51 5 -69.93 4.58C-70.35 4.16 -70.56 3.64 -70.56 3.02C-70.56 2.4 -70.35 1.88 -69.93 1.46C-69.51 1.04 -68.99 0.83 -68.37 0.83C-67.77 0.83 -67.26 1.04 -66.84 1.46C-66.42 1.88 -66.21 2.4 -66.21 3.02C-66.21 3.64 -66.42 4.16 -66.84 4.58C-67.26 5 -67.77 5.21 -68.37 5.21ZM-33.9837 5.21C-34.6037 5.21 -35.1237 5 -35.5437 4.58C-35.9637 4.16 -36.1737 3.64 -36.1737 3.02C-36.1737 2.4 -35.9637 1.88 -35.5437 1.46C-35.1237 1.04 -34.6037 0.83 -33.9837 0.83C-33.3837 0.83 -32.8737 1.04 -32.4537 1.46C-32.0337 1.88 -31.8237 2.4 -31.8237 3.02C-31.8237 3.64 -32.0337 4.16 -32.4537 4.58C-32.8737 5 -33.3837 5.21 -33.9837 5.21ZM0.40266 5.21C-0.217341 5.21 -0.737341 5 -1.15734 4.58C-1.57734 4.16 -1.78734 3.64 -1.78734 3.02C-1.78734 2.4 -1.57734 1.88 -1.15734 1.46C-0.737341 1.04 -0.217341 0.83 0.40266 0.83C1.00266 0.83 1.51266 1.04 1.93266 1.46C2.35266 1.88 2.56266 2.4 2.56266 3.02C2.56266 3.64 2.35266 4.16 1.93266 4.58C1.51266 5 1.00266 5.21 0.40266 5.21ZM34.789 5.21C34.169 5.21 33.649 5 33.229 4.58C32.809 4.16 32.599 3.64 32.599 3.02C32.599 2.4 32.809 1.88 33.229 1.46C33.649 1.04 34.169 0.83 34.789 0.83C35.389 0.83 35.899 1.04 36.319 1.46C36.739 1.88 36.949 2.4 36.949 3.02C36.949 3.64 36.739 4.16 36.319 4.58C35.899 5 35.389 5.21 34.789 5.21ZM69.1753 5.21C68.5553 5.21 68.0353 5 67.6153 4.58C67.1953 4.16 66.9853 3.64 66.9853 3.02C66.9853 2.4 67.1953 1.88 67.6153 1.46C68.0353 1.04 68.5553 0.83 69.1753 0.83C69.7753 0.83 70.2853 1.04 70.7053 1.46C71.1253 1.88 71.3353 2.4 71.3353 3.02C71.3353 3.64 71.1253 4.16 70.7053 4.58C70.2853 5 69.7753 5.21 69.1753 5.21ZM103.562 5.21C102.942 5.21 102.422 5 102.002 4.58C101.582 4.16 101.372 3.64 101.372 3.02C101.372 2.4 101.582 1.88 102.002 1.46C102.422 1.04 102.942 0.83 103.562 0.83C104.162 0.83 104.672 1.04 105.092 1.46C105.512 1.88 105.722 2.4 105.722 3.02C105.722 3.64 105.512 4.16 105.092 4.58C104.672 5 104.162 5.21 103.562 5.21ZM137.948 5.21C137.328 5.21 136.808 5 136.388 4.58C135.968 4.16 135.758 3.64 135.758 3.02C135.758 2.4 135.968 1.88 136.388 1.46C136.808 1.04 137.328 0.83 137.948 0.83C138.548 0.83 139.058 1.04 139.478 1.46C139.898 1.88 140.108 2.4 140.108 3.02C140.108 3.64 139.898 4.16 139.478 4.58C139.058 5 138.548 5.21 137.948 5.21ZM172.334 5.21C171.714 5.21 171.194 5 170.774 4.58C170.354 4.16 170.144 3.64 170.144 3.02C170.144 2.4 170.354 1.88 170.774 1.46C171.194 1.04 171.714 0.83 172.334 0.83C172.934 0.83 173.444 1.04 173.864 1.46C174.284 1.88 174.494 2.4 174.494 3.02C174.494 3.64 174.284 4.16 173.864 4.58C173.444 5 172.934 5.21 172.334 5.21ZM206.721 5.21C206.101 5.21 205.581 5 205.161 4.58C204.741 4.16 204.531 3.64 204.531 3.02C204.531 2.4 204.741 1.88 205.161 1.46C205.581 1.04 206.101 0.83 206.721 0.83C207.321 0.83 207.831 1.04 208.251 1.46C208.671 1.88 208.881 2.4 208.881 3.02C208.881 3.64 208.671 4.16 208.251 4.58C207.831 5 207.321 5.21 206.721 5.21ZM241.107 5.21C240.487 5.21 239.967 5 239.547 4.58C239.127 4.16 238.917 3.64 238.917 3.02C238.917 2.4 239.127 1.88 239.547 1.46C239.967 1.04 240.487 0.83 241.107 0.83C241.707 0.83 242.217 1.04 242.637 1.46C243.057 1.88 243.267 2.4 243.267 3.02C243.267 3.64 243.057 4.16 242.637 4.58C242.217 5 241.707 5.21 241.107 5.21ZM275.493 5.21C274.873 5.21 274.353 5 273.933 4.58C273.513 4.16 273.303 3.64 273.303 3.02C273.303 2.4 273.513 1.88 273.933 1.46C274.353 1.04 274.873 0.83 275.493 0.83C276.093 0.83 276.603 1.04 277.023 1.46C277.443 1.88 277.653 2.4 277.653 3.02C277.653 3.64 277.443 4.16 277.023 4.58C276.603 5 276.093 5.21 275.493 5.21ZM309.88 5.21C309.26 5.21 308.74 5 308.32 4.58C307.9 4.16 307.69 3.64 307.69 3.02C307.69 2.4 307.9 1.88 308.32 1.46C308.74 1.04 309.26 0.83 309.88 0.83C310.48 0.83 310.99 1.04 311.41 1.46C311.83 1.88 312.04 2.4 312.04 3.02C312.04 3.64 311.83 4.16 311.41 4.58C310.99 5 310.48 5.21 309.88 5.21ZM344.266 5.21C343.646 5.21 343.126 5 342.706 4.58C342.286 4.16 342.076 3.64 342.076 3.02C342.076 2.4 342.286 1.88 342.706 1.46C343.126 1.04 343.646 0.83 344.266 0.83C344.866 0.83 345.376 1.04 345.796 1.46C346.216 1.88 346.426 2.4 346.426 3.02C346.426 3.64 346.216 4.16 345.796 4.58C345.376 5 344.866 5.21 344.266 5.21ZM378.652 5.21C378.032 5.21 377.512 5 377.092 4.58C376.672 4.16 376.462 3.64 376.462 3.02C376.462 2.4 376.672 1.88 377.092 1.46C377.512 1.04 378.032 0.83 378.652 0.83C379.252 0.83 379.762 1.04 380.182 1.46C380.602 1.88 380.812 2.4 380.812 3.02C380.812 3.64 380.602 4.16 380.182 4.58C379.762 5 379.252 5.21 378.652 5.21ZM413.039 5.21C412.419 5.21 411.899 5 411.479 4.58C411.059 4.16 410.849 3.64 410.849 3.02C410.849 2.4 411.059 1.88 411.479 1.46C411.899 1.04 412.419 0.83 413.039 0.83C413.639 0.83 414.149 1.04 414.569 1.46C414.989 1.88 415.199 2.4 415.199 3.02C415.199 3.64 414.989 4.16 414.569 4.58C414.149 5 413.639 5.21 413.039 5.21ZM447.425 5.21C446.805 5.21 446.285 5 445.865 4.58C445.445 4.16 445.235 3.64 445.235 3.02C445.235 2.4 445.445 1.88 445.865 1.46C446.285 1.04 446.805 0.83 447.425 0.83C448.025 0.83 448.535 1.04 448.955 1.46C449.375 1.88 449.585 2.4 449.585 3.02C449.585 3.64 449.375 4.16 448.955 4.58C448.535 5 448.025 5.21 447.425 5.21ZM481.811 5.21C481.191 5.21 480.671 5 480.251 4.58C479.831 4.16 479.621 3.64 479.621 3.02C479.621 2.4 479.831 1.88 480.251 1.46C480.671 1.04 481.191 0.83 481.811 0.83C482.411 0.83 482.921 1.04 483.341 1.46C483.761 1.88 483.971 2.4 483.971 3.02C483.971 3.64 483.761 4.16 483.341 4.58C482.921 5 482.411 5.21 481.811 5.21ZM516.198 5.21C515.578 5.21 515.058 5 514.638 4.58C514.218 4.16 514.008 3.64 514.008 3.02C514.008 2.4 514.218 1.88 514.638 1.46C515.058 1.04 515.578 0.83 516.198 0.83C516.798 0.83 517.308 1.04 517.728 1.46C518.148 1.88 518.358 2.4 518.358 3.02C518.358 3.64 518.148 4.16 517.728 4.58C517.308 5 516.798 5.21 516.198 5.21ZM550.584 5.21C549.964 5.21 549.444 5 549.024 4.58C548.604 4.16 548.394 3.64 548.394 3.02C548.394 2.4 548.604 1.88 549.024 1.46C549.444 1.04 549.964 0.83 550.584 0.83C551.184 0.83 551.694 1.04 552.114 1.46C552.534 1.88 552.744 2.4 552.744 3.02C552.744 3.64 552.534 4.16 552.114 4.58C551.694 5 551.184 5.21 550.584 5.21ZM584.97 5.21C584.35 5.21 583.83 5 583.41 4.58C582.99 4.16 582.78 3.64 582.78 3.02C582.78 2.4 582.99 1.88 583.41 1.46C583.83 1.04 584.35 0.83 584.97 0.83C585.57 0.83 586.08 1.04 586.5 1.46C586.92 1.88 587.13 2.4 587.13 3.02C587.13 3.64 586.92 4.16 586.5 4.58C586.08 5 585.57 5.21 584.97 5.21ZM619.357 5.21C618.737 5.21 618.217 5 617.797 4.58C617.377 4.16 617.167 3.64 617.167 3.02C617.167 2.4 617.377 1.88 617.797 1.46C618.217 1.04 618.737 0.83 619.357 0.83C619.957 0.83 620.467 1.04 620.887 1.46C621.307 1.88 621.517 2.4 621.517 3.02C621.517 3.64 621.307 4.16 620.887 4.58C620.467 5 619.957 5.21 619.357 5.21ZM653.743 5.21C653.123 5.21 652.603 5 652.183 4.58C651.763 4.16 651.553 3.64 651.553 3.02C651.553 2.4 651.763 1.88 652.183 1.46C652.603 1.04 653.123 0.83 653.743 0.83C654.343 0.83 654.853 1.04 655.273 1.46C655.693 1.88 655.903 2.4 655.903 3.02C655.903 3.64 655.693 4.16 655.273 4.58C654.853 5 654.343 5.21 653.743 5.21ZM688.129 5.21C687.509 5.21 686.989 5 686.569 4.58C686.149 4.16 685.939 3.64 685.939 3.02C685.939 2.4 686.149 1.88 686.569 1.46C686.989 1.04 687.509 0.83 688.129 0.83C688.729 0.83 689.239 1.04 689.659 1.46C690.079 1.88 690.289 2.4 690.289 3.02C690.289 3.64 690.079 4.16 689.659 4.58C689.239 5 688.729 5.21 688.129 5.21ZM722.516 5.21C721.896 5.21 721.376 5 720.956 4.58C720.536 4.16 720.326 3.64 720.326 3.02C720.326 2.4 720.536 1.88 720.956 1.46C721.376 1.04 721.896 0.83 722.516 0.83C723.116 0.83 723.626 1.04 724.046 1.46C724.466 1.88 724.676 2.4 724.676 3.02C724.676 3.64 724.466 4.16 724.046 4.58C723.626 5 723.116 5.21 722.516 5.21ZM756.902 5.21C756.282 5.21 755.762 5 755.342 4.58C754.922 4.16 754.712 3.64 754.712 3.02C754.712 2.4 754.922 1.88 755.342 1.46C755.762 1.04 756.282 0.83 756.902 0.83C757.502 0.83 758.012 1.04 758.432 1.46C758.852 1.88 759.062 2.4 759.062 3.02C759.062 3.64 758.852 4.16 758.432 4.58C758.012 5 757.502 5.21 756.902 5.21ZM791.288 5.21C790.668 5.21 790.148 5 789.728 4.58C789.308 4.16 789.098 3.64 789.098 3.02C789.098 2.4 789.308 1.88 789.728 1.46C790.148 1.04 790.668 0.83 791.288 0.83C791.888 0.83 792.398 1.04 792.818 1.46C793.238 1.88 793.448 2.4 793.448 3.02C793.448 3.64 793.238 4.16 792.818 4.58C792.398 5 791.888 5.21 791.288 5.21ZM825.674 5.21C825.054 5.21 824.534 5 824.114 4.58C823.694 4.16 823.484 3.64 823.484 3.02C823.484 2.4 823.694 1.88 824.114 1.46C824.534 1.04 825.054 0.83 825.674 0.83C826.274 0.83 826.784 1.04 827.204 1.46C827.624 1.88 827.834 2.4 827.834 3.02C827.834 3.64 827.624 4.16 827.204 4.58C826.784 5 826.274 5.21 825.674 5.21ZM860.061 5.21C859.441 5.21 858.921 5 858.501 4.58C858.081 4.16 857.871 3.64 857.871 3.02C857.871 2.4 858.081 1.88 858.501 1.46C858.921 1.04 859.441 0.83 860.061 0.83C860.661 0.83 861.171 1.04 861.591 1.46C862.011 1.88 862.221 2.4 862.221 3.02C862.221 3.64 862.011 4.16 861.591 4.58C861.171 5 860.661 5.21 860.061 5.21ZM894.447 5.21C893.827 5.21 893.307 5 892.887 4.58C892.467 4.16 892.257 3.64 892.257 3.02C892.257 2.4 892.467 1.88 892.887 1.46C893.307 1.04 893.827 0.83 894.447 0.83C895.047 0.83 895.557 1.04 895.977 1.46C896.397 1.88 896.607 2.4 896.607 3.02C896.607 3.64 896.397 4.16 895.977 4.58C895.557 5 895.047 5.21 894.447 5.21ZM928.833 5.21C928.213 5.21 927.693 5 927.273 4.58C926.853 4.16 926.643 3.64 926.643 3.02C926.643 2.4 926.853 1.88 927.273 1.46C927.693 1.04 928.213 0.83 928.833 0.83C929.433 0.83 929.943 1.04 930.363 1.46C930.783 1.88 930.993 2.4 930.993 3.02C930.993 3.64 930.783 4.16 930.363 4.58C929.943 5 929.433 5.21 928.833 5.21ZM963.22 5.21C962.6 5.21 962.08 5 961.66 4.58C961.24 4.16 961.03 3.64 961.03 3.02C961.03 2.4 961.24 1.88 961.66 1.46C962.08 1.04 962.6 0.83 963.22 0.83C963.82 0.83 964.33 1.04 964.75 1.46C965.17 1.88 965.38 2.4 965.38 3.02C965.38 3.64 965.17 4.16 964.75 4.58C964.33 5 963.82 5.21 963.22 5.21ZM997.606 5.21C996.986 5.21 996.466 5 996.046 4.58C995.626 4.16 995.416 3.64 995.416 3.02C995.416 2.4 995.626 1.88 996.046 1.46C996.466 1.04 996.986 0.83 997.606 0.83C998.206 0.83 998.716 1.04 999.136 1.46C999.556 1.88 999.766 2.4 999.766 3.02C999.766 3.64 999.556 4.16 999.136 4.58C998.716 5 998.206 5.21 997.606 5.21ZM1031.99 5.21C1031.37 5.21 1030.85 5 1030.43 4.58C1030.01 4.16 1029.8 3.64 1029.8 3.02C1029.8 2.4 1030.01 1.88 1030.43 1.46C1030.85 1.04 1031.37 0.83 1031.99 0.83C1032.59 0.83 1033.1 1.04 1033.52 1.46C1033.94 1.88 1034.15 2.4 1034.15 3.02C1034.15 3.64 1033.94 4.16 1033.52 4.58C1033.1 5 1032.59 5.21 1031.99 5.21ZM1066.38 5.21C1065.76 5.21 1065.24 5 1064.82 4.58C1064.4 4.16 1064.19 3.64 1064.19 3.02C1064.19 2.4 1064.4 1.88 1064.82 1.46C1065.24 1.04 1065.76 0.83 1066.38 0.83C1066.98 0.83 1067.49 1.04 1067.91 1.46C1068.33 1.88 1068.54 2.4 1068.54 3.02C1068.54 3.64 1068.33 4.16 1067.91 4.58C1067.49 5 1066.98 5.21 1066.38 5.21ZM1100.77 5.21C1100.15 5.21 1099.63 5 1099.21 4.58C1098.79 4.16 1098.58 3.64 1098.58 3.02C1098.58 2.4 1098.79 1.88 1099.21 1.46C1099.63 1.04 1100.15 0.83 1100.77 0.83C1101.37 0.83 1101.88 1.04 1102.3 1.46C1102.72 1.88 1102.93 2.4 1102.93 3.02C1102.93 3.64 1102.72 4.16 1102.3 4.58C1101.88 5 1101.37 5.21 1100.77 5.21ZM1135.15 5.21C1134.53 5.21 1134.01 5 1133.59 4.58C1133.17 4.16 1132.96 3.64 1132.96 3.02C1132.96 2.4 1133.17 1.88 1133.59 1.46C1134.01 1.04 1134.53 0.83 1135.15 0.83C1135.75 0.83 1136.26 1.04 1136.68 1.46C1137.1 1.88 1137.31 2.4 1137.31 3.02C1137.31 3.64 1137.1 4.16 1136.68 4.58C1136.26 5 1135.75 5.21 1135.15 5.21ZM1169.54 5.21C1168.92 5.21 1168.4 5 1167.98 4.58C1167.56 4.16 1167.35 3.64 1167.35 3.02C1167.35 2.4 1167.56 1.88 1167.98 1.46C1168.4 1.04 1168.92 0.83 1169.54 0.83C1170.14 0.83 1170.65 1.04 1171.07 1.46C1171.49 1.88 1171.7 2.4 1171.7 3.02C1171.7 3.64 1171.49 4.16 1171.07 4.58C1170.65 5 1170.14 5.21 1169.54 5.21ZM1203.92 5.21C1203.3 5.21 1202.78 5 1202.36 4.58C1201.94 4.16 1201.73 3.64 1201.73 3.02C1201.73 2.4 1201.94 1.88 1202.36 1.46C1202.78 1.04 1203.3 0.83 1203.92 0.83C1204.52 0.83 1205.03 1.04 1205.45 1.46C1205.87 1.88 1206.08 2.4 1206.08 3.02C1206.08 3.64 1205.87 4.16 1205.45 4.58C1205.03 5 1204.52 5.21 1203.92 5.21ZM1238.31 5.21C1237.69 5.21 1237.17 5 1236.75 4.58C1236.33 4.16 1236.12 3.64 1236.12 3.02C1236.12 2.4 1236.33 1.88 1236.75 1.46C1237.17 1.04 1237.69 0.83 1238.31 0.83C1238.91 0.83 1239.42 1.04 1239.84 1.46C1240.26 1.88 1240.47 2.4 1240.47 3.02C1240.47 3.64 1240.26 4.16 1239.84 4.58C1239.42 5 1238.91 5.21 1238.31 5.21ZM1272.7 5.21C1272.08 5.21 1271.56 5 1271.14 4.58C1270.72 4.16 1270.51 3.64 1270.51 3.02C1270.51 2.4 1270.72 1.88 1271.14 1.46C1271.56 1.04 1272.08 0.83 1272.7 0.83C1273.3 0.83 1273.81 1.04 1274.23 1.46C1274.65 1.88 1274.86 2.4 1274.86 3.02C1274.86 3.64 1274.65 4.16 1274.23 4.58C1273.81 5 1273.3 5.21 1272.7 5.21ZM1307.08 5.21C1306.46 5.21 1305.94 5 1305.52 4.58C1305.1 4.16 1304.89 3.64 1304.89 3.02C1304.89 2.4 1305.1 1.88 1305.52 1.46C1305.94 1.04 1306.46 0.83 1307.08 0.83C1307.68 0.83 1308.19 1.04 1308.61 1.46C1309.03 1.88 1309.24 2.4 1309.24 3.02C1309.24 3.64 1309.03 4.16 1308.61 4.58C1308.19 5 1307.68 5.21 1307.08 5.21ZM1341.47 5.21C1340.85 5.21 1340.33 5 1339.91 4.58C1339.49 4.16 1339.28 3.64 1339.28 3.02C1339.28 2.4 1339.49 1.88 1339.91 1.46C1340.33 1.04 1340.85 0.83 1341.47 0.83C1342.07 0.83 1342.58 1.04 1343 1.46C1343.42 1.88 1343.63 2.4 1343.63 3.02C1343.63 3.64 1343.42 4.16 1343 4.58C1342.58 5 1342.07 5.21 1341.47 5.21ZM1375.86 5.21C1375.24 5.21 1374.72 5 1374.3 4.58C1373.88 4.16 1373.67 3.64 1373.67 3.02C1373.67 2.4 1373.88 1.88 1374.3 1.46C1374.72 1.04 1375.24 0.83 1375.86 0.83C1376.46 0.83 1376.97 1.04 1377.39 1.46C1377.81 1.88 1378.02 2.4 1378.02 3.02C1378.02 3.64 1377.81 4.16 1377.39 4.58C1376.97 5 1376.46 5.21 1375.86 5.21ZM1410.24 5.21C1409.62 5.21 1409.1 5 1408.68 4.58C1408.26 4.16 1408.05 3.64 1408.05 3.02C1408.05 2.4 1408.26 1.88 1408.68 1.46C1409.1 1.04 1409.62 0.83 1410.24 0.83C1410.84 0.83 1411.35 1.04 1411.77 1.46C1412.19 1.88 1412.4 2.4 1412.4 3.02C1412.4 3.64 1412.19 4.16 1411.77 4.58C1411.35 5 1410.84 5.21 1410.24 5.21ZM1444.63 5.21C1444.01 5.21 1443.49 5 1443.07 4.58C1442.65 4.16 1442.44 3.64 1442.44 3.02C1442.44 2.4 1442.65 1.88 1443.07 1.46C1443.49 1.04 1444.01 0.83 1444.63 0.83C1445.23 0.83 1445.74 1.04 1446.16 1.46C1446.58 1.88 1446.79 2.4 1446.79 3.02C1446.79 3.64 1446.58 4.16 1446.16 4.58C1445.74 5 1445.23 5.21 1444.63 5.21ZM1479.01 5.21C1478.39 5.21 1477.87 5 1477.45 4.58C1477.03 4.16 1476.82 3.64 1476.82 3.02C1476.82 2.4 1477.03 1.88 1477.45 1.46C1477.87 1.04 1478.39 0.83 1479.01 0.83C1479.61 0.83 1480.12 1.04 1480.54 1.46C1480.96 1.88 1481.17 2.4 1481.17 3.02C1481.17 3.64 1480.96 4.16 1480.54 4.58C1480.12 5 1479.61 5.21 1479.01 5.21ZM1513.4 5.21C1512.78 5.21 1512.26 5 1511.84 4.58C1511.42 4.16 1511.21 3.64 1511.21 3.02C1511.21 2.4 1511.42 1.88 1511.84 1.46C1512.26 1.04 1512.78 0.83 1513.4 0.83C1514 0.83 1514.51 1.04 1514.93 1.46C1515.35 1.88 1515.56 2.4 1515.56 3.02C1515.56 3.64 1515.35 4.16 1514.93 4.58C1514.51 5 1514 5.21 1513.4 5.21ZM1547.79 5.21C1547.17 5.21 1546.65 5 1546.23 4.58C1545.81 4.16 1545.6 3.64 1545.6 3.02C1545.6 2.4 1545.81 1.88 1546.23 1.46C1546.65 1.04 1547.17 0.83 1547.79 0.83C1548.39 0.83 1548.9 1.04 1549.32 1.46C1549.74 1.88 1549.95 2.4 1549.95 3.02C1549.95 3.64 1549.74 4.16 1549.32 4.58C1548.9 5 1548.39 5.21 1547.79 5.21ZM1582.17 5.21C1581.55 5.21 1581.03 5 1580.61 4.58C1580.19 4.16 1579.98 3.64 1579.98 3.02C1579.98 2.4 1580.19 1.88 1580.61 1.46C1581.03 1.04 1581.55 0.83 1582.17 0.83C1582.77 0.83 1583.28 1.04 1583.7 1.46C1584.12 1.88 1584.33 2.4 1584.33 3.02C1584.33 3.64 1584.12 4.16 1583.7 4.58C1583.28 5 1582.77 5.21 1582.17 5.21ZM1616.56 5.21C1615.94 5.21 1615.42 5 1615 4.58C1614.58 4.16 1614.37 3.64 1614.37 3.02C1614.37 2.4 1614.58 1.88 1615 1.46C1615.42 1.04 1615.94 0.83 1616.56 0.83C1617.16 0.83 1617.67 1.04 1618.09 1.46C1618.51 1.88 1618.72 2.4 1618.72 3.02C1618.72 3.64 1618.51 4.16 1618.09 4.58C1617.67 5 1617.16 5.21 1616.56 5.21ZM1650.95 5.21C1650.33 5.21 1649.81 5 1649.39 4.58C1648.97 4.16 1648.76 3.64 1648.76 3.02C1648.76 2.4 1648.97 1.88 1649.39 1.46C1649.81 1.04 1650.33 0.83 1650.95 0.83C1651.55 0.83 1652.06 1.04 1652.48 1.46C1652.9 1.88 1653.11 2.4 1653.11 3.02C1653.11 3.64 1652.9 4.16 1652.48 4.58C1652.06 5 1651.55 5.21 1650.95 5.21Z" fill="black" fill-opacity="0.4"/>
</svg>
