<svg width="16" height="12" viewBox="0 0 16 12" fill="none" xmlns="http://www.w3.org/2000/svg">
<path d="M15.3002 6.39995C15.2477 6.43935 15.1879 6.46801 15.1243 6.48431C15.0607 6.5006 14.9945 6.50421 14.9295 6.49492C14.8645 6.48564 14.8019 6.46364 14.7454 6.43019C14.6889 6.39673 14.6396 6.35248 14.6002 6.29995C14.2988 5.89486 13.9066 5.56619 13.455 5.3404C13.0034 5.1146 12.5051 4.99799 12.0002 4.99995C11.9019 4.99994 11.8057 4.97094 11.7238 4.91658C11.6419 4.86222 11.5778 4.78491 11.5396 4.69432C11.5136 4.63281 11.5002 4.56672 11.5002 4.49995C11.5002 4.43318 11.5136 4.36709 11.5396 4.30557C11.5778 4.21498 11.6419 4.13768 11.7238 4.08332C11.8057 4.02896 11.9019 3.99996 12.0002 3.99995C12.2807 3.99992 12.5556 3.92122 12.7937 3.77279C13.0318 3.62435 13.2234 3.41213 13.3469 3.16022C13.4704 2.90832 13.5208 2.62683 13.4923 2.34774C13.4638 2.06864 13.3577 1.80312 13.1859 1.58134C13.0141 1.35956 12.7835 1.1904 12.5204 1.09308C12.2573 0.995769 11.9721 0.974195 11.6973 1.03081C11.4226 1.08743 11.1692 1.21997 10.966 1.41338C10.7627 1.60679 10.6178 1.85331 10.5477 2.12495C10.5313 2.18856 10.5025 2.24831 10.463 2.3008C10.4235 2.35328 10.374 2.39747 10.3174 2.43084C10.2608 2.46421 10.1982 2.48611 10.1332 2.49529C10.0681 2.50446 10.0019 2.50074 9.93831 2.48432C9.87471 2.46791 9.81495 2.43913 9.76247 2.39962C9.70998 2.36011 9.66579 2.31065 9.63242 2.25407C9.59905 2.19748 9.57715 2.13487 9.56798 2.06983C9.5588 2.00478 9.56252 1.93856 9.57894 1.87495C9.67629 1.49827 9.8602 1.14951 10.1161 0.856418C10.3719 0.563327 10.6926 0.333994 11.0527 0.186668C11.4128 0.0393412 11.8023 -0.0219125 12.1902 0.00778036C12.5781 0.0374732 12.9538 0.157293 13.2872 0.357706C13.6207 0.558119 13.9028 0.833593 14.1111 1.16221C14.3193 1.49083 14.448 1.86352 14.4869 2.25062C14.5258 2.63773 14.4738 3.02857 14.335 3.39204C14.1963 3.75552 13.9746 4.08159 13.6877 4.34432C14.3676 4.6387 14.9586 5.10583 15.4021 5.69932C15.4415 5.75199 15.4701 5.8119 15.4863 5.87564C15.5025 5.93938 15.506 6.00569 15.4965 6.07077C15.487 6.13585 15.4648 6.19843 15.4311 6.25492C15.3974 6.3114 15.353 6.36069 15.3002 6.39995ZM11.9327 10.2499C11.9689 10.3069 11.9932 10.3705 12.0041 10.437C12.015 10.5036 12.0124 10.5716 11.9964 10.6371C11.9803 10.7026 11.9512 10.7642 11.9107 10.8182C11.8703 10.8721 11.8193 10.9173 11.761 10.9511C11.7026 10.9848 11.638 11.0064 11.571 11.0145C11.5041 11.0227 11.4362 11.0172 11.3714 10.9984C11.3067 10.9796 11.2464 10.9479 11.1942 10.9052C11.142 10.8625 11.0989 10.8097 11.0677 10.7499C10.7527 10.2166 10.3041 9.77462 9.76621 9.46758C9.22827 9.16053 8.61958 8.99904 8.00019 8.99904C7.3808 8.99904 6.7721 9.16053 6.23417 9.46758C5.69624 9.77462 5.24766 10.2166 4.93269 10.7499C4.90143 10.8097 4.85841 10.8625 4.80621 10.9052C4.75402 10.9479 4.69372 10.9796 4.62896 10.9984C4.56419 11.0172 4.4963 11.0227 4.42936 11.0145C4.36241 11.0064 4.29781 10.9848 4.23943 10.9511C4.18104 10.9173 4.13009 10.8721 4.08963 10.8182C4.04917 10.7642 4.02005 10.7026 4.004 10.6371C3.98796 10.5716 3.98533 10.5036 3.99628 10.437C4.00722 10.3705 4.03151 10.3069 4.06769 10.2499C4.55244 9.41706 5.29156 8.76162 6.17644 8.37995C5.67852 7.99872 5.31258 7.47105 5.13006 6.87109C4.94755 6.27114 4.95763 5.62907 5.15889 5.03514C5.36015 4.44121 5.74247 3.92528 6.25211 3.55987C6.76175 3.19446 7.37309 2.99795 8.00019 2.99795C8.62729 2.99795 9.23863 3.19446 9.74827 3.55987C10.2579 3.92528 10.6402 4.44121 10.8415 5.03514C11.0428 5.62907 11.0528 6.27114 10.8703 6.87109C10.6878 7.47105 10.3219 7.99872 9.82394 8.37995C10.7088 8.76162 11.4479 9.41706 11.9327 10.2499ZM8.00019 7.99995C8.39575 7.99995 8.78243 7.88265 9.11133 7.66289C9.44023 7.44313 9.69657 7.13077 9.84795 6.76532C9.99932 6.39986 10.0389 5.99773 9.96176 5.60977C9.88459 5.22181 9.69411 4.86544 9.4144 4.58574C9.1347 4.30603 8.77833 4.11555 8.39037 4.03838C8.00241 3.96121 7.60028 4.00081 7.23482 4.15219C6.86937 4.30357 6.55701 4.55991 6.33725 4.88881C6.11749 5.21771 6.00019 5.60439 6.00019 5.99995C6.00019 6.53038 6.2109 7.03909 6.58598 7.41416C6.96105 7.78924 7.46976 7.99995 8.00019 7.99995ZM4.50019 4.49995C4.50019 4.36734 4.44751 4.24016 4.35374 4.1464C4.25997 4.05263 4.1328 3.99995 4.00019 3.99995C3.71964 3.99992 3.44473 3.92122 3.20667 3.77279C2.96861 3.62435 2.77695 3.41213 2.65346 3.16022C2.52997 2.90832 2.4796 2.62683 2.50806 2.34774C2.53653 2.06864 2.6427 1.80312 2.81451 1.58134C2.98631 1.35956 3.21688 1.1904 3.48 1.09308C3.74313 0.995769 4.02827 0.974195 4.30304 1.03081C4.57782 1.08743 4.8312 1.21997 5.03442 1.41338C5.23765 1.60679 5.38255 1.85331 5.45269 2.12495C5.48584 2.25341 5.56867 2.36345 5.68295 2.43084C5.79723 2.49824 5.9336 2.51748 6.06206 2.48432C6.19053 2.45117 6.30056 2.36835 6.36796 2.25407C6.43535 2.13979 6.45459 2.00341 6.42144 1.87495C6.32409 1.49827 6.14017 1.14951 5.88432 0.856418C5.62847 0.563327 5.30774 0.333994 4.94766 0.186668C4.58758 0.0393412 4.19808 -0.0219125 3.81016 0.00778036C3.42224 0.0374732 3.04661 0.157293 2.71314 0.357706C2.37968 0.558119 2.09759 0.833593 1.88933 1.16221C1.68106 1.49083 1.55237 1.86352 1.51348 2.25062C1.4746 2.63773 1.5266 3.02857 1.66534 3.39204C1.80409 3.75552 2.02575 4.08159 2.31269 4.34432C1.63349 4.63898 1.04314 5.10609 0.60019 5.69932C0.520542 5.80541 0.486299 5.93879 0.504994 6.07013C0.523689 6.20146 0.593791 6.31999 0.699877 6.39964C0.805964 6.47928 0.939345 6.51353 1.07068 6.49483C1.20201 6.47614 1.32054 6.40604 1.40019 6.29995C1.70156 5.89486 2.09382 5.56619 2.54541 5.3404C2.997 5.1146 3.4953 4.99799 4.00019 4.99995C4.1328 4.99995 4.25997 4.94727 4.35374 4.8535C4.44751 4.75973 4.50019 4.63256 4.50019 4.49995Z" fill="black"/>
</svg>
