<svg width="13" height="13" viewBox="0 0 13 13" fill="none" xmlns="http://www.w3.org/2000/svg">
<path d="M12.3098 5.75176L9.96237 7.87794L10.6655 11.0434C10.7028 11.2089 10.6921 11.3821 10.635 11.5414C10.5779 11.7006 10.4768 11.8389 10.3444 11.9388C10.212 12.0388 10.0541 12.096 9.89056 12.1034C9.72698 12.1107 9.56495 12.0678 9.42471 11.9801L6.76452 10.3055L4.11005 11.9801C3.96982 12.0678 3.80778 12.1107 3.64421 12.1034C3.48063 12.096 3.32277 12.0388 3.19036 11.9388C3.05795 11.8389 2.95686 11.7006 2.89975 11.5414C2.84263 11.3821 2.83201 11.2089 2.86922 11.0434L3.57135 7.88118L1.22345 5.75176C1.09927 5.6406 1.00947 5.49387 0.96532 5.32995C0.921169 5.16604 0.92463 4.99225 0.975269 4.83037C1.02591 4.66849 1.12147 4.52573 1.24997 4.41999C1.37848 4.31425 1.5342 4.25025 1.69761 4.23599L4.79241 3.9578L6.00045 0.967317C6.06354 0.810401 6.16995 0.676365 6.30628 0.582086C6.44261 0.487807 6.60278 0.4375 6.7666 0.4375C6.93043 0.4375 7.09059 0.487807 7.22693 0.582086C7.36326 0.676365 7.46967 0.810401 7.53275 0.967317L8.74444 3.9578L11.8382 4.23599C12.0016 4.25025 12.1573 4.31425 12.2858 4.41999C12.4143 4.52573 12.5099 4.66849 12.5605 4.83037C12.6112 4.99225 12.6146 5.16604 12.5705 5.32995C12.5263 5.49387 12.4365 5.6406 12.3124 5.75176H12.3098Z" fill="#F5C426"/>
</svg>
