<svg width="18" height="17" viewBox="0 0 18 17" fill="none" xmlns="http://www.w3.org/2000/svg">
<path d="M9.00035 1.49986C7.51699 1.49986 6.06694 1.93973 4.83357 2.76384C3.6002 3.58795 2.63891 4.75929 2.07125 6.12973C1.50359 7.50018 1.35507 9.00818 1.64446 10.463C1.93385 11.9179 2.64815 13.2543 3.69705 14.3032C4.74594 15.3521 6.08231 16.0664 7.53717 16.3557C8.99203 16.6451 10.5 16.4966 11.8705 15.929C13.2409 15.3613 14.4123 14.4 15.2364 13.1666C16.0605 11.9333 16.5003 10.4832 16.5003 8.99986C16.4981 7.01143 15.7072 5.1051 14.3011 3.69907C12.8951 2.29304 10.9888 1.50213 9.00035 1.49986ZM9.00035 15.2499C7.76421 15.2499 6.55584 14.8833 5.52803 14.1965C4.50023 13.5098 3.69915 12.5337 3.2261 11.3916C2.75305 10.2496 2.62928 8.99293 2.87044 7.78054C3.1116 6.56816 3.70685 5.45452 4.58093 4.58044C5.45501 3.70636 6.56865 3.11111 7.78103 2.86995C8.99341 2.62879 10.2501 2.75256 11.3921 3.22561C12.5342 3.69866 13.5103 4.49974 14.197 5.52754C14.8838 6.55535 15.2503 7.76373 15.2503 8.99986C15.2485 10.6569 14.5894 12.2455 13.4177 13.4172C12.246 14.5889 10.6574 15.248 9.00035 15.2499ZM3.81753 1.31705L1.31754 3.81705C1.25947 3.87512 1.19053 3.92118 1.11466 3.9526C1.03879 3.98403 0.957469 4.00021 0.875348 4.00021C0.793226 4.00021 0.711908 3.98403 0.636037 3.9526C0.560167 3.92118 0.491229 3.87512 0.43316 3.81705C0.315885 3.69977 0.25 3.54071 0.25 3.37486C0.25 3.20901 0.315885 3.04995 0.43316 2.93267L2.93316 0.432672C2.99123 0.374603 3.06017 0.32854 3.13604 0.297113C3.21191 0.265687 3.29323 0.249512 3.37535 0.249512C3.45747 0.249512 3.53879 0.265687 3.61466 0.297113C3.69053 0.32854 3.75947 0.374603 3.81753 0.432672C3.8756 0.490741 3.92167 0.559678 3.95309 0.635549C3.98452 0.71142 4.00069 0.792737 4.00069 0.874859C4.00069 0.956981 3.98452 1.0383 3.95309 1.11417C3.92167 1.19004 3.8756 1.25898 3.81753 1.31705ZM17.5675 3.81705C17.5095 3.87516 17.4406 3.92126 17.3647 3.95271C17.2888 3.98416 17.2075 4.00035 17.1253 4.00035C17.0432 4.00035 16.9619 3.98416 16.886 3.95271C16.8101 3.92126 16.7412 3.87516 16.6832 3.81705L14.1832 1.31705C14.0659 1.19977 14 1.04071 14 0.874859C14 0.709007 14.0659 0.549947 14.1832 0.432672C14.3004 0.315396 14.4595 0.249512 14.6253 0.249512C14.7912 0.249512 14.9503 0.315396 15.0675 0.432672L17.5675 2.93267C17.6256 2.99072 17.6717 3.05965 17.7032 3.13552C17.7347 3.2114 17.7508 3.29272 17.7508 3.37486C17.7508 3.45699 17.7347 3.53832 17.7032 3.6142C17.6717 3.69007 17.6256 3.759 17.5675 3.81705ZM13.3753 8.37486C13.5411 8.37486 13.7001 8.44071 13.8173 8.55792C13.9345 8.67513 14.0003 8.8341 14.0003 8.99986C14.0003 9.16562 13.9345 9.32459 13.8173 9.4418C13.7001 9.55901 13.5411 9.62486 13.3753 9.62486H9.00035C8.83459 9.62486 8.67562 9.55901 8.55841 9.4418C8.4412 9.32459 8.37535 9.16562 8.37535 8.99986V4.62486C8.37535 4.4591 8.4412 4.30013 8.55841 4.18292C8.67562 4.06571 8.83459 3.99986 9.00035 3.99986C9.16611 3.99986 9.32508 4.06571 9.44229 4.18292C9.5595 4.30013 9.62535 4.4591 9.62535 4.62486V8.37486H13.3753Z" fill="black"/>
</svg>
