<svg width="130" height="40" viewBox="0 0 130 40" fill="none" xmlns="http://www.w3.org/2000/svg">
<path d="M19.4779 0.564453C8.74156 0.564453 0.0375977 9.26818 0.0375977 20.0045C0.0375977 30.7414 8.74156 39.4444 19.4779 39.4444C30.2155 39.4444 38.9185 30.7414 38.9185 20.0045C38.9185 9.26888 30.2155 0.565382 19.4777 0.565382L19.4779 0.564453ZM28.3931 28.6027C28.0451 29.1739 27.2976 29.3548 26.7264 29.0043C22.162 26.2162 16.416 25.5848 9.64901 27.1309C8.99693 27.2795 8.34693 26.8709 8.19835 26.2185C8.04909 25.5662 8.45602 24.9162 9.10973 24.7677C16.5151 23.0758 22.8672 23.8043 27.9914 26.9359C28.5626 27.2864 28.7438 28.0315 28.3931 28.6027ZM30.7726 23.3093C30.3339 24.0225 29.4006 24.2477 28.688 23.8089C23.4624 20.597 15.4969 19.6668 9.3161 21.543C8.51452 21.7851 7.66789 21.3333 7.4246 20.5331C7.18318 19.7316 7.63518 18.8865 8.43536 18.6428C15.4955 16.5006 24.2726 17.5383 30.2735 21.2259C30.9863 21.6646 31.2114 22.5976 30.7726 23.3093ZM30.9768 17.7973C24.7114 14.0759 14.3741 13.7337 8.39197 15.5493C7.43135 15.8406 6.41548 15.2983 6.12439 14.3377C5.83327 13.3766 6.3751 12.3615 7.33639 12.0695C14.2034 9.9848 25.6191 10.3876 32.8326 14.6699C33.6984 15.1827 33.9817 16.2986 33.4688 17.1615C32.958 18.0255 31.8392 18.3104 30.9779 17.7973H30.9768ZM52.9284 18.5105C49.5714 17.7101 48.9748 17.1483 48.9748 15.9678C48.9748 14.8526 50.0243 14.1021 51.5864 14.1021C53.1001 14.1021 54.5997 14.672 56.1736 15.8453C56.2201 15.8808 56.2805 15.8949 56.3385 15.8856C56.3989 15.8768 56.4498 15.8446 56.4847 15.796L58.1236 13.4858C58.191 13.3906 58.1723 13.2594 58.0818 13.1868C56.2085 11.6841 54.1006 10.9535 51.6352 10.9535C48.0114 10.9535 45.4789 13.1285 45.4789 16.2404C45.4789 19.5774 47.6634 20.759 51.438 21.6711C54.6485 22.411 55.1918 23.0308 55.1918 24.1385C55.1918 25.3666 54.096 26.1303 52.3318 26.1303C50.3723 26.1303 48.773 25.4687 46.9855 23.9227C46.9414 23.8832 46.881 23.867 46.8252 23.8693C46.7651 23.8739 46.7114 23.9018 46.6743 23.9459L44.8359 26.1327C44.7593 26.2255 44.7685 26.3602 44.8568 26.4391C46.9368 28.2964 49.4948 29.276 52.2573 29.276C56.1622 29.276 58.6855 27.1425 58.6855 23.8391C58.6923 21.0518 57.0234 19.508 52.9352 18.5135L52.9284 18.5105ZM67.5209 15.2001C65.8285 15.2001 64.4402 15.8668 63.2935 17.233V15.6953C63.2935 15.5739 63.196 15.475 63.0752 15.475H60.0689C59.9484 15.475 59.8509 15.5739 59.8509 15.6953V32.7814C59.8509 32.9019 59.9484 33.0018 60.0689 33.0018H63.0752C63.196 33.0018 63.2935 32.9019 63.2935 32.7814V27.3885C64.4402 28.6723 65.8285 29.3014 67.5209 29.3014C70.6664 29.3014 73.8514 26.8802 73.8514 22.2515C73.856 17.6218 70.671 15.1999 67.5231 15.1999L67.5209 15.2001ZM70.3552 22.2515C70.3552 24.6075 68.9043 26.2534 66.8243 26.2534C64.7701 26.2534 63.2193 24.5332 63.2193 22.2515C63.2193 19.9695 64.7701 18.2498 66.8243 18.2498C68.8697 18.2496 70.3552 19.9323 70.3552 22.2515ZM82.0111 15.2001C77.9602 15.2001 74.7868 18.3192 74.7868 22.3018C74.7868 26.2418 77.9393 29.3269 81.9623 29.3269C86.0272 29.3269 89.2101 26.2186 89.2101 22.2515C89.2101 18.2978 86.0481 15.2006 82.0111 15.2006V15.2001ZM82.0111 26.2766C79.8568 26.2766 78.2318 24.5448 78.2318 22.2503C78.2318 19.9454 79.8013 18.2728 81.9623 18.2728C84.1306 18.2728 85.7651 20.0039 85.7651 22.3007C85.7651 24.6052 84.1864 26.2766 82.0111 26.2766ZM97.8597 15.475H94.5515V12.0936C94.5515 11.9724 94.4539 11.8735 94.3334 11.8735H91.3272C91.2064 11.8735 91.1065 11.9724 91.1065 12.0936V15.475H89.6626C89.5418 15.475 89.4444 15.5739 89.4444 15.6953V18.2783C89.4444 18.3995 89.5418 18.4986 89.6626 18.4986H91.1065V25.1832C91.1065 27.8831 92.4506 29.2527 95.1039 29.2527C96.181 29.2527 97.0751 29.0298 97.9176 28.5515C97.9872 28.5144 98.0289 28.4402 98.0289 28.3614V25.9005C98.0289 25.8262 97.9897 25.7543 97.9247 25.7148C97.8597 25.673 97.7784 25.6707 97.711 25.7055C97.133 25.9957 96.5735 26.1303 95.9468 26.1303C94.9834 26.1303 94.5515 25.6916 94.5515 24.712V18.4998H97.8597C97.9802 18.4998 98.0777 18.4009 98.0777 18.2795V15.6967C98.0823 15.5753 97.9848 15.4764 97.8618 15.4764L97.8597 15.475ZM109.383 15.4882V15.0729C109.383 13.8512 109.852 13.3063 110.901 13.3063C111.528 13.3063 112.032 13.4307 112.596 13.6188C112.666 13.6406 112.738 13.6297 112.793 13.5881C112.851 13.5466 112.884 13.48 112.884 13.4094V10.8767C112.884 10.7799 112.823 10.6942 112.728 10.6657C112.134 10.4886 111.373 10.3068 110.231 10.3068C107.456 10.3068 105.987 11.87 105.987 14.8259V15.462H104.543C104.422 15.462 104.322 15.5609 104.322 15.682V18.2783C104.322 18.3995 104.422 18.4986 104.543 18.4986H105.987V28.8069C105.987 28.9301 106.087 29.0276 106.208 29.0276H109.211C109.334 29.0276 109.432 28.9301 109.432 28.8069V18.4993H112.238L116.538 28.8069C116.05 29.8889 115.57 30.1047 114.915 30.1047C114.386 30.1047 113.826 29.9468 113.258 29.6335C113.204 29.6056 113.139 29.601 113.083 29.6172C113.026 29.6381 112.977 29.6798 112.953 29.7356L111.934 31.971C111.886 32.0777 111.927 32.201 112.03 32.2565C113.093 32.8323 114.051 33.0785 115.238 33.0785C117.457 33.0785 118.685 32.0431 119.765 29.2619L124.978 15.7891C125.006 15.7213 124.997 15.6447 124.955 15.5846C124.916 15.5249 124.848 15.4889 124.776 15.4889H121.647C121.552 15.4889 121.468 15.5486 121.438 15.6365L118.232 24.7909L114.722 15.6305C114.69 15.5453 114.609 15.4889 114.518 15.4889H109.383V15.4882ZM102.702 15.475H99.6959C99.5751 15.475 99.4752 15.5739 99.4752 15.6953V28.8069C99.4752 28.9301 99.5751 29.0276 99.6959 29.0276H102.702C102.823 29.0276 102.923 28.9301 102.923 28.8069V15.6962C102.923 15.5748 102.825 15.4759 102.702 15.4759V15.475ZM101.216 9.5045C100.026 9.5045 99.0597 10.4684 99.0597 11.659C99.0597 12.8504 100.026 13.8154 101.216 13.8154C102.407 13.8154 103.371 12.8504 103.371 11.659C103.371 10.4686 102.405 9.5045 101.216 9.5045ZM127.546 19.6909C126.358 19.6909 125.431 18.7357 125.431 17.5756C125.431 16.4156 126.369 15.4495 127.558 15.4495C128.746 15.4495 129.672 16.4045 129.672 17.5636C129.672 18.7236 128.735 19.6909 127.546 19.6909ZM127.558 15.6598C126.473 15.6598 125.654 16.521 125.654 17.5756C125.654 18.6298 126.469 19.4795 127.546 19.4795C128.63 19.4795 129.45 18.6189 129.45 17.5636C129.45 16.5094 128.635 15.6598 127.558 15.6598ZM128.026 17.7811L128.626 18.6187H128.119L127.581 17.8503H127.119V18.6187H126.696V16.3985H127.685C128.203 16.3985 128.542 16.6624 128.542 17.1067C128.544 17.4707 128.333 17.6931 128.029 17.7811H128.026ZM127.669 16.7794H127.119V17.4816H127.669C127.943 17.4816 128.108 17.3472 128.108 17.1302C128.108 16.9017 127.943 16.7794 127.669 16.7794Z" fill="#666666"/>
</svg>
