<svg width="89" height="28" viewBox="0 0 89 28" fill="none" xmlns="http://www.w3.org/2000/svg">
<path d="M0.632812 25.3915L2.25033 21.6348C3.99809 22.9392 6.32014 23.6175 8.61596 23.6175C10.3117 23.6175 11.3814 22.9652 11.3814 21.9739C11.3552 19.2085 1.23265 21.3739 1.15442 14.4343C1.12842 10.9123 4.25901 8.19907 8.69419 8.19907C11.3292 8.19907 13.9641 8.85127 15.8426 10.3383L14.3293 14.1734C12.6075 13.0777 10.4682 12.295 8.43327 12.295C7.05044 12.295 6.13745 12.9472 6.13745 13.782C6.16345 16.4953 16.3642 15.0082 16.4687 21.6348C16.4687 25.2351 13.4163 27.7656 9.03334 27.7656C5.8243 27.7656 2.87641 27.009 0.632812 25.3915ZM62.6978 20.2782C61.8893 21.687 60.376 22.6523 58.628 22.6523C56.0453 22.6523 53.9581 20.5651 53.9581 17.9824C53.9581 15.3996 56.0453 13.3125 58.628 13.3125C60.376 13.3125 61.8893 14.2778 62.6978 15.6865L67.159 13.2081C65.4895 10.234 62.2804 8.19907 58.628 8.19907C53.2276 8.19907 48.8449 12.582 48.8449 17.9824C48.8449 23.3828 53.2276 27.7656 58.628 27.7656C62.3067 27.7656 65.4895 25.7569 67.159 22.7565L62.6978 20.2782ZM18.7122 0.0854492H24.2953V27.4004H18.7122V0.0854492ZM69.3506 0.0854492V27.4004H74.9334V19.2085L81.56 27.4004H88.7084L80.2819 17.6693L88.0823 8.5904H81.2471L74.9334 16.1301V0.0854492H69.3506ZM40.8877 20.3303C40.079 21.6609 38.4092 22.6523 36.5308 22.6523C33.948 22.6523 31.8609 20.5651 31.8609 17.9824C31.8609 15.3996 33.948 13.3125 36.5308 13.3125C38.4092 13.3125 40.079 14.356 40.8877 15.7126V20.3303ZM40.8877 8.5904V10.8079C39.9745 9.2687 37.7049 8.19907 35.3308 8.19907C30.426 8.19907 26.5649 12.5298 26.5649 17.9563C26.5649 23.3828 30.426 27.7656 35.3308 27.7656C37.7049 27.7656 39.9745 26.6961 40.8877 25.1568V27.3744H46.4708V8.5904H40.8877Z" fill="#666666"/>
</svg>
