<svg width="45" height="30" viewBox="0 0 45 30" fill="none" xmlns="http://www.w3.org/2000/svg">
<path d="M23.6297 29.9717L14.7295 29.8088C11.8478 29.7521 8.95892 29.8655 6.1338 29.2778C1.83595 28.3998 1.53149 24.0948 1.21287 20.4838C0.773883 15.4071 0.943814 10.2384 1.77223 5.20415C2.23954 2.37905 4.08046 0.693883 6.92682 0.509789C16.535 -0.155776 26.207 -0.0778906 35.7939 0.233652C36.8064 0.261973 37.826 0.417743 38.8243 0.594756C43.7524 1.45857 43.8728 6.33703 44.1914 10.4437C44.5099 14.5929 44.3755 18.7633 43.7666 22.8842C43.278 26.2969 42.3435 29.1573 38.3995 29.4336C33.4574 29.7946 28.6285 30.085 23.6722 29.993C23.6722 29.9717 23.6439 29.9717 23.6297 29.9717ZM18.3972 21.3336C22.1216 19.1952 25.7751 17.0923 29.4783 14.9681C25.7468 12.8298 22.1003 10.7269 18.3972 8.60278V21.3336Z" fill="#666666"/>
</svg>
