<svg width="130" height="34" viewBox="0 0 130 34" fill="none" xmlns="http://www.w3.org/2000/svg">
<path d="M41.9636 13.4406C41.9636 11.1105 39.6975 8.63572 35.7767 8.63572C31.3735 8.63572 26.5365 11.8658 25.7971 18.3098C25.0418 24.818 29.0915 27.7107 33.1733 27.7107C37.255 27.7107 39.3924 26.1199 41.5779 23.9986C39.6975 21.6363 37.2711 22.7291 36.8051 22.9701C36.2908 23.2272 35.6319 23.5807 34.282 23.5807C32.7073 23.5807 31.1003 22.8737 31.1003 19.9329C41.1922 18.9365 41.9636 15.7708 41.9636 13.4406ZM36.9657 13.8263C36.9015 14.5494 36.6123 15.7868 31.5019 16.4778C32.5786 12.6532 34.6357 12.3639 35.5838 12.3639C36.4675 12.3639 37.0299 13.0549 36.9657 13.8263ZM19.8673 14.453C19.8673 14.453 17.6979 21.2667 17.5212 21.8291C17.4569 21.2506 15.8659 9.02141 15.8659 9.02141C12.1698 9.02141 10.1933 11.6569 9.14872 14.437C9.14872 14.437 6.51324 21.2667 6.28827 21.8452C6.2722 21.3149 5.88651 14.5173 5.88651 14.5173C5.66154 11.1105 2.54397 9.03747 0.0209961 9.03747L3.07427 27.5662C6.94714 27.5501 9.03623 24.9306 10.129 22.1505C10.129 22.1505 12.4591 16.1243 12.5555 15.8511C12.5716 16.1082 14.2268 27.5662 14.2268 27.5662C18.1157 27.5662 20.2048 25.1073 21.3297 22.4237L26.7774 9.03747C22.9366 9.03747 20.9119 11.6569 19.8673 14.453ZM56.2336 8.60359C53.8392 8.60359 52.0072 9.90525 50.4644 11.8176V11.8015L51.8465 0.665039C48.6646 0.665039 46.0773 3.42907 45.5793 7.54297L43.1687 27.4214C45.0008 27.4214 46.9451 26.8912 47.9896 25.5413C48.9219 26.7465 50.3199 27.7107 52.3928 27.7107C57.7603 27.7107 61.4402 21.4756 61.4402 15.6261C61.4082 10.2909 58.8209 8.60359 56.2336 8.60359ZM55.7354 18.1652C55.173 21.4274 53.3571 23.6451 51.6054 23.6451C49.8378 23.6451 49.0825 22.8576 49.0825 22.8576C49.4199 19.9972 49.6288 18.2455 50.2716 16.735C50.9145 15.2244 52.4412 12.8139 54.032 12.8139C55.5909 12.8139 56.2978 14.8869 55.7354 18.1652ZM74.8425 9.03747H71.0983L71.1144 8.84463C71.3715 6.40201 71.95 5.11642 73.8624 4.90751C75.1639 4.77894 75.7425 4.104 75.887 3.3648C75.9995 2.78627 76.3532 0.777529 76.3532 0.777529C68.8325 0.729319 66.4701 3.97543 65.8595 8.92498L65.8434 9.03747H65.7631C64.5418 9.03747 63.1919 10.4195 62.9669 12.1711L62.8866 12.8139H65.3935L63.2883 30.2016L62.6456 33.3191C62.7259 33.3191 62.8223 33.3352 62.9027 33.3352C66.422 33.2066 68.6717 30.4266 69.1699 26.393L70.8091 12.8139H71.982C73.1391 12.8139 74.489 11.6569 74.7302 9.72847L74.8425 9.03747ZM94.3193 8.71608C89.9964 8.71608 85.9147 11.8979 84.6612 16.8957C83.4079 21.8934 85.3042 27.8071 91.6678 27.8071C98.0154 27.8071 101.679 21.6524 101.679 16.5261C101.679 11.4319 98.2243 8.71608 94.3193 8.71608ZM96.071 18.0045C95.846 20.2704 94.8495 23.7093 92.1177 23.7093C89.3698 23.7093 89.7555 19.6918 90.0286 17.7795C90.3179 15.7386 91.4589 12.83 93.9175 12.83C96.1191 12.83 96.3281 15.4494 96.071 18.0045ZM123.036 14.453C123.036 14.453 120.867 21.2667 120.69 21.8291C120.626 21.2506 119.035 9.02141 119.035 9.02141C115.339 9.02141 113.362 11.6569 112.318 14.437C112.318 14.437 109.682 21.2667 109.457 21.8452C109.441 21.3149 109.055 14.5173 109.055 14.5173C108.831 11.1105 105.713 9.03747 103.19 9.03747L106.227 27.5662C110.1 27.5501 112.189 24.9306 113.282 22.1505C113.282 22.1505 115.612 16.1243 115.692 15.8511C115.724 16.1082 117.364 27.5662 117.364 27.5662C121.252 27.5662 123.342 25.1073 124.466 22.4237L129.914 9.03747C126.089 9.03747 124.065 11.6569 123.036 14.453ZM78.3779 0.777529L75.2281 26.1841L74.5854 29.3177C74.6657 29.3177 74.7622 29.3338 74.8425 29.3338C78.2334 29.2857 80.6439 26.3127 81.0938 22.5683L82.9097 7.99293C83.456 3.54156 80.8045 0.777529 78.3779 0.777529Z" fill="#666666"/>
</svg>
