<svg width="91" height="18" viewBox="0 0 91 18" fill="none" xmlns="http://www.w3.org/2000/svg">
<path fill-rule="evenodd" clip-rule="evenodd" d="M84.7032 16.8735V0.323242H80.9147V16.8735H84.7032ZM0.607422 0.32356L6.98817 16.8737V16.9233H11.2752L17.656 0.373409H13.668L9.28126 11.9883H9.18156L4.74494 0.32356H0.607422ZM39.7875 7.9007H41.4325V13.7829C41.4325 16.425 43.1274 17.2224 45.0217 17.2224C46.5671 17.2224 47.564 16.8237 48.4113 16.1757V13.6832C47.7136 13.9823 47.1154 14.1318 46.5172 14.1318C45.6199 14.1318 45.1713 13.7331 45.1713 12.7361V7.9007H48.2617V5.25863H45.1713V2.01842H42.8283L42.4295 3.56376C42.1304 4.66043 41.7815 5.25862 40.635 5.45805L39.7875 5.60757V7.9007ZM61.8225 12.3367H61.9222L64.1654 5.25806H67.6051L63.9162 16.9228H60.2273L58.333 9.8941H58.2333L56.3889 16.9228H52.7L49.0112 5.25806H52.7997L55.043 12.3367H55.1427L56.9871 5.25806H60.0279L61.8225 12.3367ZM90.3372 0.323242V16.8735H86.5487V0.323242H90.3372ZM33.0089 9.24623L35.2522 9.64493C37.7945 10.0438 39.2401 11.1404 39.29 13.4336C39.29 15.8762 37.2462 17.2222 34.0558 17.2222C30.9153 17.2222 28.5225 15.926 28.3231 13.0846L30.2174 13.0348H31.6132C31.7627 14.1813 32.66 14.7795 34.0558 14.7795C35.0528 14.7795 35.7507 14.4305 35.7507 13.7825C35.7507 13.1843 35.4017 12.8852 34.4546 12.7357L32.66 12.4366C29.9681 12.0377 28.5225 11.0906 28.5225 8.79758C28.5225 6.5044 30.4666 4.90926 33.657 4.85944C36.9969 4.85944 38.941 6.35485 39.1903 8.84738L36.0498 8.94713C35.8504 7.95009 35.0528 7.35189 33.6071 7.35189C32.66 7.35189 32.0618 7.75074 32.0618 8.39874C32.0618 8.89718 32.4107 9.14648 33.0089 9.24623ZM24.1367 13.0341C23.688 13.9314 22.8904 14.3302 21.6941 14.3302C20.2484 14.3302 19.052 13.4329 18.9523 11.8876H27.3769V10.741C27.3769 7.5507 25.3331 4.90868 21.4947 4.90868C17.9055 4.90868 15.2635 7.55071 15.2635 11.2395C15.2635 14.9284 17.9055 17.2214 21.5944 17.2214C24.6352 17.2214 26.7289 15.726 27.3271 13.084H27.1277H24.1367V13.0341ZM21.4947 7.65045C22.9403 7.65045 23.688 8.6973 23.7379 9.84374H19.052C19.2514 8.64735 19.9493 7.65045 21.4947 7.65045ZM73.7373 14.3302C74.9337 14.3302 75.7313 13.9314 76.1799 13.0341V13.084H79.1709H79.3703C78.7721 15.726 76.6784 17.2214 73.6376 17.2214C69.9487 17.2214 67.3067 14.9284 67.3067 11.2395C67.3067 7.55071 69.9487 4.90868 73.5379 4.90868C77.3763 4.90868 79.4202 7.5507 79.4202 10.741V11.8876H70.9956C71.0953 13.4329 72.2917 14.3302 73.7373 14.3302ZM75.7313 9.84374C75.6814 8.6973 74.9337 7.65045 73.4881 7.65045C71.9926 7.65045 71.2947 8.64735 71.0454 9.84374H75.7313Z" fill="#666666"/>
</svg>
