<svg width="31" height="36" viewBox="0 0 31 36" fill="none" xmlns="http://www.w3.org/2000/svg">
<path fill-rule="evenodd" clip-rule="evenodd" d="M0.0209961 2.6513C0.0209961 1.40405 1.14352 0.40625 2.45313 0.40625H28.3336C29.7055 0.40625 30.7658 1.40405 30.7658 2.6513V17.8677C30.7658 21.7966 28.3959 25.9126 23.7188 30.2153C20.4135 33.2088 17.1083 35.2045 16.9836 35.2668C16.1728 35.7032 15.1751 35.7032 14.3643 35.2668C14.3407 35.2431 14.198 35.1544 13.959 35.0056C12.938 34.3702 10.1589 32.6409 7.37975 30.2153C2.51551 25.9747 0.0209961 21.7966 0.0209961 17.8054V2.6513ZM6.75622 7.9518L13.1795 24.665H17.4825L23.9682 7.9518H19.977L15.5493 19.676H15.4245L10.9345 7.9518H6.75622Z" fill="#666666"/>
</svg>
