<svg width="90" height="28" viewBox="0 0 90 28" fill="none" xmlns="http://www.w3.org/2000/svg">
<path d="M67.8106 25.0913C67.6406 25.7851 67.4921 26.3303 67.3434 26.9109H63.8598V0.0405273H67.924V9.9532C68.1363 9.68413 68.2425 9.57086 68.3346 9.45049C69.0286 8.49463 69.9277 7.87155 71.089 7.6308C72.9369 7.2697 74.5159 8.08395 75.0752 9.86115C75.4363 10.9657 75.67 12.1482 75.6984 13.3023C75.755 16.269 75.7125 19.2286 75.6063 22.1953C75.5638 23.1018 75.2875 24.0293 74.9406 24.8788C73.8006 27.6828 70.0765 28.1076 68.2284 25.6791C68.115 25.5303 68.009 25.3674 67.8106 25.0913ZM68.009 17.6993V22.613C68.009 23.4132 68.4338 23.9018 69.2338 24.0859C70.0198 24.2699 70.6569 23.9655 70.9756 23.2361C71.1102 22.9318 71.2446 22.613 71.2517 22.2945C71.3296 19.2924 71.4004 16.2902 71.4217 13.281C71.4217 12.7217 71.2871 12.1411 71.1173 11.5959C70.7986 10.6117 69.9206 10.3214 69.0569 10.8949C68.4054 11.3339 68.009 11.957 68.009 12.7854V17.6993ZM56.9634 8.01315H61.2188V26.9251H57.8979C57.7775 26.2099 57.6573 25.4736 57.5156 24.6099C57.289 24.9426 57.1546 25.1551 57.0129 25.3674C55.9083 26.9605 54.3436 27.5057 52.4956 27.2155C50.9167 26.9605 49.9677 25.7426 49.7554 23.7459C49.6917 23.1511 49.6634 22.5495 49.6634 21.9547C49.6492 17.5293 49.6634 13.0899 49.6634 8.66455V7.99899H53.9684V8.77076C53.9684 13.0474 53.9542 17.3169 53.9825 21.5934C53.9825 22.2024 54.0463 22.8326 54.1523 23.4415C54.2727 24.0647 54.7258 24.2911 55.3348 24.2486C56.319 24.1707 56.9988 23.4415 56.9988 22.4645V8.84865C56.9633 8.57251 56.9634 8.31761 56.9634 8.01315ZM27.6644 7.99899H31.9409V8.79909C31.9409 13.0544 31.9267 17.3027 31.955 21.544C31.955 22.1528 32.0117 22.783 32.1392 23.3778C32.3021 24.0788 32.7127 24.3053 33.4136 24.2132C34.3838 24.0788 34.9713 23.4061 34.9784 22.422V8.87697V8.02732H39.2338V26.9251H35.9273C35.8069 26.2241 35.6865 25.502 35.5306 24.5886C35.3184 24.9072 35.1979 25.0913 35.0775 25.2824C33.9729 26.9038 32.4223 27.4986 30.5319 27.2084C29.0167 26.9818 28.0892 25.863 27.8059 24.0293C27.7279 23.4557 27.6715 22.8893 27.6715 22.3157C27.6573 17.7205 27.6573 13.104 27.6573 8.50878L27.6644 7.99899ZM25.4694 18.0958C25.4552 18.733 25.4127 19.3702 25.3773 20.0074C25.2144 21.9193 25.1365 24.6311 23.5929 26.0259C22.6088 26.9038 21.3627 27.2226 20.074 27.2649C19.5004 27.279 18.9198 27.279 18.3465 27.2013C15.6346 26.7905 14.3742 25.5941 13.9211 22.613C13.4042 19.172 13.3617 15.6742 13.9777 12.2331C14.615 8.67163 16.81 7.4113 20.2227 7.64497C23.409 7.87155 24.8321 9.96028 25.2073 12.9341C25.4127 14.6405 25.5119 16.3681 25.4694 18.0958ZM21.1361 17.4443C21.1361 16.2336 21.1644 15.0157 21.1219 13.805C21.0936 13.104 21.0015 12.396 20.8529 11.7021C20.6829 10.902 20.1731 10.5196 19.5359 10.5338C18.9127 10.548 18.4738 10.9303 18.2473 11.6738C18.1694 11.9499 18.0844 12.2331 18.0844 12.5093C18.0844 14.4068 18.0702 16.3115 18.0561 18.209C18.0419 19.9793 17.8154 21.8343 18.3748 23.5266C18.5446 24.0434 18.9836 24.3265 19.5571 24.3265C20.1165 24.3265 20.4846 24.0505 20.69 23.5549C20.8529 23.1724 20.9944 22.7547 20.9944 22.3441C21.044 20.7155 21.1361 19.0799 21.1361 17.4443ZM7.67607 13.8829C8.05128 12.049 8.40544 10.2577 8.79482 8.45922C9.28336 6.17222 9.82857 3.88524 10.31 1.59115C10.4304 1.0318 10.6569 0.897267 11.1879 0.911427C12.3279 0.953911 13.4892 0.925588 14.7071 0.925588C14.3104 2.38418 13.9211 3.77195 13.5388 5.13847C12.3279 9.42924 11.1173 13.7342 9.92065 18.0391C9.82856 18.3719 9.78607 18.733 9.78607 19.087C9.7719 21.4378 9.78607 23.7813 9.78607 26.1322V26.8968H5.62982C5.61565 26.6845 5.58732 26.472 5.58732 26.2595C5.58732 24.9284 5.48107 23.5903 5.60148 22.2732C5.90607 19.1083 4.90065 16.1982 4.08628 13.2527C3.01003 9.35845 1.91961 5.45001 0.843357 1.55576C0.786899 1.37165 0.765651 1.1734 0.708984 0.946829H4.95002C5.84232 5.24468 6.74148 9.54253 7.67607 13.8829ZM88.9954 18.818H81.83C81.9079 20.2553 81.9363 21.6218 82.0848 22.9743C82.1911 23.9159 82.7079 24.3195 83.5223 24.3265C84.3719 24.3407 84.8675 23.9159 85.0659 22.9813C85.1294 22.6768 85.1719 22.3724 85.2002 22.0609C85.2286 21.7847 85.2427 21.4874 85.264 21.0907C86.4748 21.1545 87.6573 21.2253 88.8254 21.2749C89.5052 23.2928 88.2802 25.8843 86.2198 26.6845C84.5986 27.3215 82.9346 27.3216 81.2777 26.833C80.0527 26.472 79.1394 25.6932 78.7288 24.4966C78.3465 23.3778 77.9852 22.2095 77.9073 21.0411C77.695 18.1595 77.6171 15.2494 78.0561 12.3606C78.134 11.8791 78.2686 11.4189 78.4171 10.9515C79.0119 9.02565 80.3077 7.84322 82.3115 7.64497C83.4019 7.53876 84.5277 7.58124 85.604 7.76534C87.3456 8.0698 88.2731 9.32305 88.6769 10.9657C88.8609 11.7375 88.9954 12.5305 89.0238 13.3164C89.0309 15.1219 88.9954 16.9133 88.9954 18.818ZM84.9242 16.3327C84.9242 14.9095 84.9384 13.5713 84.91 12.226C84.91 11.9074 84.7896 11.5746 84.6692 11.2702C84.4286 10.6754 83.9258 10.5126 83.324 10.5126C82.7221 10.5126 82.3398 10.817 82.1911 11.3622C81.7379 12.9978 81.8867 14.6688 81.9009 16.3469C82.9842 16.3327 83.9684 16.3327 84.9242 16.3327Z" fill="#666666"/>
</svg>
