<svg width="20" height="19" viewBox="0 0 20 19" fill="none" xmlns="http://www.w3.org/2000/svg">
<path d="M19.0253 8.33896L15.2024 11.6753L16.3476 16.6425C16.4082 16.9022 16.3909 17.1739 16.2979 17.4238C16.2049 17.6737 16.0402 17.8907 15.8246 18.0475C15.609 18.2044 15.3519 18.2941 15.0855 18.3057C14.8191 18.3172 14.5552 18.2499 14.3268 18.1123L9.99449 15.4846L5.6715 18.1123C5.44312 18.2499 5.17923 18.3172 4.91284 18.3057C4.64644 18.2941 4.38935 18.2044 4.17371 18.0475C3.95807 17.8907 3.79345 17.6737 3.70043 17.4238C3.60741 17.1739 3.59012 16.9022 3.65071 16.6425L4.79419 11.6804L0.970462 8.33896C0.768221 8.16454 0.62198 7.93428 0.550077 7.67708C0.478175 7.41987 0.483812 7.14716 0.566281 6.89314C0.64875 6.63912 0.804381 6.41511 1.01366 6.24919C1.22293 6.08327 1.47654 5.98283 1.74267 5.96047L6.78276 5.52393L8.75015 0.831371C8.85289 0.585143 9.02618 0.374818 9.24821 0.226879C9.47024 0.0789396 9.73108 0 9.99788 0C10.2647 0 10.5255 0.0789396 10.7476 0.226879C10.9696 0.374818 11.1429 0.585143 11.2456 0.831371L13.2189 5.52393L18.2573 5.96047C18.5235 5.98283 18.7771 6.08327 18.9863 6.24919C19.1956 6.41511 19.3512 6.63912 19.4337 6.89314C19.5162 7.14716 19.5218 7.41987 19.4499 7.67708C19.378 7.93428 19.2318 8.16454 19.0295 8.33896H19.0253Z" fill="#1A1A1A"/>
</svg>
