<svg width="25" height="21" viewBox="0 0 25 21" fill="none" xmlns="http://www.w3.org/2000/svg">
<path d="M22.374 5.37815C22.3891 5.59733 22.3891 5.8165 22.3891 6.03769C22.3891 12.7776 17.2682 20.5507 7.90426 20.5507V20.5466C5.13813 20.5507 2.42946 19.7568 0.10083 18.2599C0.503048 18.3084 0.907282 18.3327 1.31252 18.3337C3.60486 18.3357 5.83168 17.565 7.6351 16.146C5.45668 16.1046 3.54639 14.6814 2.87906 12.6038C3.64216 12.7513 4.42845 12.721 5.17744 12.516C2.80244 12.0352 1.09377 9.94445 1.09377 7.51636C1.09377 7.49414 1.09377 7.47293 1.09377 7.45172C1.80143 7.84664 2.59377 8.06581 3.40426 8.09005C1.16736 6.59219 0.477846 3.61062 1.82865 1.27949C4.41333 4.4661 8.22684 6.40332 12.3206 6.60836C11.9103 4.83678 12.4708 2.98036 13.7934 1.73501C15.8438 -0.196146 19.0686 -0.0971645 20.996 1.95621C22.1361 1.73097 23.2289 1.31181 24.2289 0.717921C23.8488 1.89863 23.0534 2.90158 21.9909 3.53891C23 3.41972 23.9859 3.14904 24.9143 2.73594C24.2309 3.76212 23.37 4.65599 22.374 5.37815Z" fill="#1D9BF0"/>
</svg>
