<svg width="32" height="28" viewBox="0 0 32 28" fill="none" xmlns="http://www.w3.org/2000/svg">
<path d="M21.9999 22.9048C22.6897 22.633 23.3583 22.3101 23.9999 21.9386V26.9998C23.9999 27.2651 23.8946 27.5194 23.707 27.7069C23.5195 27.8945 23.2651 27.9998 22.9999 27.9998C22.7347 27.9998 22.4804 27.8945 22.2928 27.7069C22.1053 27.5194 21.9999 27.2651 21.9999 26.9998V22.9048ZM23.4699 11.8511L16.4699 8.11733C16.2364 7.99804 15.9653 7.97527 15.7151 8.05392C15.465 8.13257 15.2557 8.30635 15.1324 8.53782C15.0092 8.76929 14.9817 9.03992 15.0561 9.29141C15.1304 9.54289 15.3006 9.75511 15.5299 9.88233L21.3749 12.9998L23.4999 11.8673L23.4699 11.8511ZM31.4699 8.11733L16.4699 0.117334C16.3252 0.0402935 16.1638 0 15.9999 0C15.836 0 15.6746 0.0402935 15.5299 0.117334L0.529932 8.11733C0.369937 8.2026 0.236132 8.32976 0.142832 8.4852C0.0495308 8.64065 0.000244141 8.81854 0.000244141 8.99983C0.000244141 9.18113 0.0495308 9.35902 0.142832 9.51446C0.236132 9.66991 0.369937 9.79707 0.529932 9.88233L3.99993 11.7336V17.7861C3.99889 18.2773 4.17967 18.7515 4.50743 19.1173C6.14493 20.9411 9.81368 23.9998 15.9999 23.9998C18.0511 24.0168 20.087 23.6453 21.9999 22.9048V13.3336L21.3749 12.9998L15.9999 15.8661L5.47868 10.2498L3.12493 8.99983L15.9999 2.13358L28.8749 8.99983L26.5274 10.2498H26.5199L23.4999 11.8673C23.652 11.9551 23.7782 12.0814 23.866 12.2335C23.9538 12.3855 24 12.558 23.9999 12.7336V21.9386C25.3039 21.1858 26.4823 20.2339 27.4924 19.1173C27.8202 18.7515 28.001 18.2773 27.9999 17.7861V11.7336L31.4699 9.88233C31.6299 9.79707 31.7637 9.66991 31.857 9.51446C31.9503 9.35902 31.9996 9.18113 31.9996 8.99983C31.9996 8.81854 31.9503 8.64065 31.857 8.4852C31.7637 8.32976 31.6299 8.2026 31.4699 8.11733Z" fill="#333333"/>
</svg>
