<svg width="30" height="23" viewBox="0 0 30 23" fill="none" xmlns="http://www.w3.org/2000/svg">
<path d="M7.01501 13.4752C7.0184 13.5429 7.00798 13.6106 6.98438 13.6742C6.96077 13.7378 6.92448 13.7959 6.87771 13.845C6.83094 13.8941 6.77466 13.9332 6.71231 13.9599C6.64996 13.9866 6.58283 14.0003 6.51501 14.0002H1.00001C0.774308 14.0005 0.555124 13.9245 0.378105 13.7845C0.201086 13.6445 0.0766438 13.4487 0.0250138 13.2289C-0.00713503 13.0786 -0.00565299 12.9229 0.0293538 12.7732C0.0643607 12.6234 0.132027 12.4832 0.227514 12.3627C1.10977 11.1927 2.28038 10.2714 3.62501 9.68894C3.03467 9.15069 2.5819 8.47883 2.30461 7.72961C2.02732 6.9804 1.9336 6.17564 2.03128 5.38275C2.12897 4.58987 2.41522 3.83193 2.86606 3.17242C3.31691 2.51291 3.91922 1.97103 4.62255 1.59217C5.32588 1.2133 6.10976 1.00849 6.90852 0.994867C7.70729 0.981249 8.49769 1.15923 9.21353 1.51389C9.92937 1.86856 10.5498 2.38959 11.0229 3.03335C11.4959 3.6771 11.8079 4.42484 11.9325 5.21394C11.9486 5.32006 11.9296 5.42852 11.8784 5.52284C11.8272 5.61716 11.7465 5.69216 11.6488 5.73644C10.2618 6.37766 9.0871 7.40224 8.2634 8.68929C7.4397 9.97633 7.00133 11.4721 7.00001 13.0002C7.00001 13.1602 7.00001 13.3177 7.01501 13.4752ZM29.765 12.3614C28.8848 11.1928 27.7169 10.272 26.375 9.68894C26.9654 9.15069 27.4181 8.47883 27.6954 7.72961C27.9727 6.9804 28.0664 6.17564 27.9687 5.38275C27.8711 4.58987 27.5848 3.83193 27.134 3.17242C26.6831 2.51291 26.0808 1.97103 25.3775 1.59217C24.6741 1.2133 23.8903 1.00849 23.0915 0.994867C22.2927 0.981249 21.5023 1.15923 20.7865 1.51389C20.0707 1.86856 19.4502 2.38959 18.9772 3.03335C18.5041 3.6771 18.1922 4.42484 18.0675 5.21394C18.0514 5.32006 18.0704 5.42852 18.1216 5.52284C18.1729 5.61716 18.2535 5.69216 18.3513 5.73644C19.7383 6.37766 20.9129 7.40224 21.7366 8.68929C22.5603 9.97633 22.9987 11.4721 23 13.0002C23 13.1602 23 13.3177 22.985 13.4752C22.9816 13.5429 22.992 13.6106 23.0157 13.6742C23.0393 13.7378 23.0755 13.7959 23.1223 13.845C23.1691 13.8941 23.2254 13.9332 23.2877 13.9599C23.3501 13.9866 23.4172 14.0003 23.485 14.0002H29C29.2257 14.0005 29.4449 13.9245 29.6219 13.7845C29.7989 13.6445 29.9234 13.4487 29.975 13.2289C30.0074 13.0783 30.0059 12.9223 29.9706 12.7723C29.9354 12.6223 29.8673 12.482 29.7713 12.3614H29.765ZM18.64 17.7589C19.6357 16.9964 20.3674 15.941 20.7323 14.7411C21.0972 13.5413 21.0769 12.2572 20.6744 11.0694C20.2718 9.88166 19.5071 8.8499 18.4879 8.11915C17.4686 7.3884 16.246 6.99541 14.9919 6.99541C13.7377 6.99541 12.5151 7.3884 11.4959 8.11915C10.4766 8.8499 9.71198 9.88166 9.30941 11.0694C8.90683 12.2572 8.88657 13.5413 9.25147 14.7411C9.61636 15.941 10.3481 16.9964 11.3438 17.7589C9.57693 18.5245 8.1016 19.8356 7.13376 21.5002C7.04599 21.6522 6.99978 21.8247 6.99979 22.0002C6.9998 22.1758 7.04603 22.3483 7.13382 22.5003C7.22161 22.6523 7.34788 22.7785 7.49993 22.8663C7.65199 22.9541 7.82446 23.0002 8.00001 23.0002H22C22.1756 23.0002 22.348 22.9541 22.5001 22.8663C22.6521 22.7785 22.7784 22.6523 22.8662 22.5003C22.954 22.3483 23.0002 22.1758 23.0002 22.0002C23.0002 21.8247 22.954 21.6522 22.8663 21.5002C21.8964 19.8345 20.4183 18.5233 18.6488 17.7589H18.64Z" fill="#333333"/>
</svg>
